Coordinates
version=1
nRows=10
nColumns=33
inDegrees=yes

Units are S.I. units (second, meters, Newtons, ...)
Angles are in degrees.

endheader
time	ground_thorax_rot_x	ground_thorax_rot_y	ground_thorax_rot_z	ground_thorax_tx	ground_thorax_ty	ground_thorax_tz	clav_prot_r	clav_elev_r	scapula_abduction_r	scapula_elevation_r	scapula_upward_rot_r	scapula_winging_r	shoulder_elv_r	plane_of_elev_r	axial_rot_r	elbow_flexion_r	pro_sup_r	wrist_flex_r	wrist_dev_r	clav_prot_l	clav_elev_l	scapula_abduction_l	scapula_elevation_l	scapula_upward_rot_l	scapula_winging_l	shoulder_elv_l	plane_of_elev_l	axial_rot_l	elbow_flexion_l	pro_sup_l	wrist_flex_l	wrist_dev_l
      5.90000000	     26.22479321	     37.65699680	     49.33581277	     75.00834158	    770.91176878	    -47.14163849	     13.15182181	     36.36346653	     28.20525477	     45.00000000	    -45.00000000	   1000.15916477	  -2090.75486510	     20.54705751	   -161.38495669	   1801.46169302	   -197.10130947	     10.72704652	     12.69893225	    -14.83654431	    -45.00000000	    -32.31504480	     45.00000000	    -45.00000000	  -5661.90038695	  -1368.10099324	     23.27772283	     23.33232788	   1429.10411631	     43.59198977	     12.15411314	    -14.07263612
      5.91000000	     26.57190083	     37.63087499	     48.80668363	     74.15377344	    770.53731822	    -47.15878261	     12.97264121	     36.39768170	     28.30635567	     45.00000000	    -45.00000000	   1000.24536081	  -2090.67561505	     20.50385330	   -161.41747417	   1801.50546468	   -197.11215451	     10.82687315	     12.69830725	    -14.95861923	    -45.00000000	    -32.22942934	     45.00000000	    -45.00000000	  -5661.85578252	  -1368.09237352	     23.23554936	     22.97814501	   1429.14465643	     43.51673158	     12.21855161	    -14.11940856
      5.92000000	     26.69861674	     37.81007491	     48.50964904	     73.18338250	    770.16938868	    -47.18361324	     13.04007042	     36.49117702	     28.25053634	     45.00000000	    -45.00000000	   1000.09518749	  -2090.64191520	     20.50439514	   -161.15121363	   1801.42436178	   -197.02163515	     10.84175846	     12.69336287	    -14.87058888	    -45.00000000	    -32.34374835	     45.00000000	    -45.00000000	  -5661.79009830	  -1368.06209430	     23.17496153	     22.93948522	   1429.13935591	     43.48426257	     12.18828562	    -14.10106330
      5.93000000	     26.89990573	     37.88741730	     48.10443764	     72.11124339	    769.80852851	    -47.21793259	     12.99346006	     36.45450378	     28.18720378	     45.00000000	    -45.00000000	   1000.06356076	  -2090.57488752	     20.55385035	   -161.04023333	   1801.44026346	   -196.94434306	     10.89558292	     12.69967855	    -14.84258294	    -45.00000000	    -32.34689384	     45.00000000	    -45.00000000	  -5661.71447253	  -1368.01660790	     23.16262476	     22.57462284	   1429.14676684	     43.50130099	     12.19081582	    -14.10583338
      5.94000000	     26.98241899	     38.04913115	     47.90598119	     70.94131125	    769.45145146	    -47.26160681	     13.05992975	     36.43802730	     28.20566471	     45.00000000	    -45.00000000	    999.93476401	  -2090.57428331	     20.49376380	   -160.93416711	   1801.41433969	   -196.80438886	     10.92978641	     12.69231666	    -14.78041090	    -45.00000000	    -32.37137165	     45.00000000	    -45.00000000	  -5661.55435066	  -1367.93066660	     23.10202418	     22.35040064	   1429.14515409	     43.54778728	     12.19403812	    -14.11448838
      5.95000000	     27.28405073	     38.07699616	     47.31383738	     69.67860377	    769.09704332	    -47.31376623	     12.91397606	     36.57638266	     28.16440454	     45.00000000	    -45.00000000	    999.97026162	  -2090.47730033	     20.51137615	   -160.57085109	   1801.45356913	   -196.57265207	     10.94900296	     12.70421040	    -14.72750715	    -45.00000000	    -32.52792623	     45.00000000	    -45.00000000	  -5661.54315456	  -1367.95030327	     23.06267783	     22.08693680	   1429.20251723	     43.62005102	     12.18843998	    -14.15343321
      5.96000000	     27.30285410	     38.25420789	     47.23562092	     68.33117707	    768.74606614	    -47.37264607	     13.10851256	     36.35322979	     28.12144884	     45.00000000	    -45.00000000	    999.78407089	  -2090.50148267	     20.55488820	   -160.66669866	   1801.44825613	   -196.35515005	     10.97958564	     12.69946288	    -14.68836117	    -45.00000000	    -32.38990185	     45.00000000	    -45.00000000	  -5661.31728833	  -1367.77515379	     23.04813265	     21.79279121	   1429.15418147	     43.74213164	     12.16473751	    -14.12994702
      5.97000000	     27.55276190	     38.29425909	     46.69092777	     66.89707880	    768.39749190	    -47.43630193	     12.91667897	     36.56919810	     28.12712210	     45.00000000	    -45.00000000	    999.75836603	  -2090.41623344	     20.45860970	   -160.26851841	   1801.32135298	   -195.97475630	     11.07605446	     12.70498677	    -14.55833936	    -45.00000000	    -32.57881343	     45.00000000	    -45.00000000	  -5661.26289516	  -1367.77660148	     23.01159364	     21.58453497	   1429.26918038	     43.87214635	     12.19574565	    -14.22576186
      5.98000000	     27.70930110	     38.39781545	     46.41176280	     65.38500048	    768.05306892	    -47.50171952	     13.05026586	     36.40392053	     28.05744495	     45.00000000	    -45.00000000	    999.67392380	  -2090.35731175	     20.55822394	   -160.16789363	   1801.41894482	   -195.60256268	     11.05627385	     12.72013937	    -14.57102234	    -45.00000000	    -32.57941989	     45.00000000	    -45.00000000	  -5661.13107907	  -1367.67168153	     22.95179184	     21.28243239	   1429.22985570	     44.05428999	     12.11783624	    -14.19487335
      5.99000000	     27.81580437	     38.51625007	     46.14310984	     63.79977832	    767.71361214	    -47.56604377	     13.01016855	     36.44572773	     28.07508616	     45.00000000	    -45.00000000	    999.54075359	  -2090.34351240	     20.44462342	   -160.02388464	   1801.33145652	   -195.13882751	     11.15692716	     12.70707539	    -14.41388306	    -45.00000000	    -32.61784079	     45.00000000	    -45.00000000	  -5660.97180185	  -1367.59105354	     22.91272670	     21.01938799	   1429.29007388	     44.25338205	     12.16326379	    -14.28045139
